<?xml version="1.0" encoding="UTF-8" standalone="no"?>
<svg
   xmlns:dc="http://purl.org/dc/elements/1.1/"
   xmlns:cc="http://web.resource.org/cc/"
   xmlns:rdf="http://www.w3.org/1999/02/22-rdf-syntax-ns#"
   xmlns:svg="http://www.w3.org/2000/svg"
   xmlns="http://www.w3.org/2000/svg"
   xmlns:xlink="http://www.w3.org/1999/xlink"
   xmlns:sodipodi="http://sodipodi.sourceforge.net/DTD/sodipodi-0.dtd"
   xmlns:inkscape="http://www.inkscape.org/namespaces/inkscape"
   height="660"
   width="600"
   version="1.0"
   id="svg2"
   sodipodi:version="0.32"
   inkscape:version="0.45.1"
   sodipodi:docname="Blason_Abries.svg"
   sodipodi:docbase="C:\monAtelierGraphique\Blasons"
   inkscape:export-filename="/Users/olivier/Desktop/Blason Rouge/Blason_Vide_3D.png"
   inkscape:export-xdpi="144"
   inkscape:export-ydpi="144"
   inkscape:output_extension="org.inkscape.output.svg.inkscape">
  <metadata
     id="metadata49">
    <rdf:RDF>
      <cc:Work
         rdf:about="">
        <dc:format>image/svg+xml</dc:format>
        <dc:type
           rdf:resource="http://purl.org/dc/dcmitype/StillImage" />
        <dc:title>Blason d'Abriès( Hautes-Alpes)</dc:title>
        <dc:date>20 novembre 2007</dc:date>
        <dc:creator>
          <cc:Agent>
            <dc:title>Aups alias MG05</dc:title>
          </cc:Agent>
        </dc:creator>
        <cc:license
           rdf:resource="http://creativecommons.org/licenses/GPL/2.0/" />
        <dc:language>fr</dc:language>
        <dc:subject>
          <rdf:Bag>
            <rdf:li>blason projet wikipédia</rdf:li>
          </rdf:Bag>
        </dc:subject>
        <dc:source>http://emblemes.free.fr/alphacom/com-dpts.php - http://mairie.abries.free.fr</dc:source>
      </cc:Work>
      <cc:License
         rdf:about="http://creativecommons.org/licenses/GPL/2.0/">
        <cc:permits
           rdf:resource="http://web.resource.org/cc/Reproduction" />
        <cc:permits
           rdf:resource="http://web.resource.org/cc/Distribution" />
        <cc:requires
           rdf:resource="http://web.resource.org/cc/Notice" />
        <cc:permits
           rdf:resource="http://web.resource.org/cc/DerivativeWorks" />
        <cc:requires
           rdf:resource="http://web.resource.org/cc/ShareAlike" />
        <cc:requires
           rdf:resource="http://web.resource.org/cc/SourceCode" />
      </cc:License>
    </rdf:RDF>
  </metadata>
  <sodipodi:namedview
     inkscape:window-height="750"
     inkscape:window-width="1280"
     inkscape:pageshadow="2"
     inkscape:pageopacity="0.0"
     guidetolerance="10.0"
     gridtolerance="10.0"
     objecttolerance="10.0"
     borderopacity="1.0"
     bordercolor="#666666"
     pagecolor="#ffffff"
     id="base"
     showgrid="false"
     height="660px"
     inkscape:zoom="0.44547727"
     inkscape:cx="1048.4582"
     inkscape:cy="531.89727"
     inkscape:window-x="-8"
     inkscape:window-y="-8"
     inkscape:current-layer="layer4"
     inkscape:showpageshadow="false"
     showguides="true"
     inkscape:guide-bbox="true" />
  <desc
     id="desc4">Flag of Canton of Valais (Wallis)</desc>
  <defs
     id="defs6">
    <linearGradient
       id="linearGradient2893">
      <stop
         style="stop-color:white;stop-opacity:0.3137255;"
         offset="0"
         id="stop2895" />
      <stop
         id="stop2897"
         offset="0.19"
         style="stop-color:white;stop-opacity:0.25098041;" />
      <stop
         style="stop-color:#6b6b6b;stop-opacity:0.1254902;"
         offset="0.60000002"
         id="stop2901" />
      <stop
         style="stop-color:black;stop-opacity:0.1254902;"
         offset="1"
         id="stop2899" />
    </linearGradient>
    <linearGradient
       id="linearGradient2885">
      <stop
         id="stop2887"
         offset="0"
         style="stop-color:white;stop-opacity:1;" />
      <stop
         style="stop-color:white;stop-opacity:1;"
         offset="0.22857143"
         id="stop2891" />
      <stop
         id="stop2889"
         offset="1"
         style="stop-color:black;stop-opacity:1;" />
    </linearGradient>
    <linearGradient
       id="linearGradient2955">
      <stop
         id="stop2867"
         offset="0"
         style="stop-color:#fd0000;stop-opacity:1;" />
      <stop
         style="stop-color:#e77275;stop-opacity:0.65882355;"
         offset="0.5"
         id="stop2873" />
      <stop
         style="stop-color:black;stop-opacity:0.32291666;"
         offset="1"
         id="stop2959" />
    </linearGradient>
    <radialGradient
       inkscape:collect="always"
       xlink:href="#linearGradient2955"
       id="radialGradient2961"
       cx="225.52438"
       cy="218.90099"
       fx="225.52438"
       fy="218.90099"
       r="300"
       gradientTransform="matrix(-4.167939e-4,2.182867,-1.884232,-3.599562e-4,615.5972,-289.1214)"
       gradientUnits="userSpaceOnUse" />
    <polygon
       id="star"
       transform="scale(53,53)"
       points="0,-1 0.58778525,0.80901699 -0.95105652,-0.30901699 0.95105652,-0.30901699 -0.58778525,0.80901699 0,-1 " />
    <clipPath
       id="clip">
      <path
         d="M 0,-200 L 0,600 L 300,600 L 300,-200 L 0,-200 z "
         id="path10" />
    </clipPath>
    <radialGradient
       inkscape:collect="always"
       xlink:href="#linearGradient2955"
       id="radialGradient1911"
       gradientUnits="userSpaceOnUse"
       gradientTransform="matrix(-4.167939e-4,2.182867,-1.884232,-3.599562e-4,615.5972,-289.1214)"
       cx="225.52438"
       cy="218.90099"
       fx="225.52438"
       fy="218.90099"
       r="300" />
    <radialGradient
       inkscape:collect="always"
       xlink:href="#linearGradient2955"
       id="radialGradient2865"
       gradientUnits="userSpaceOnUse"
       gradientTransform="matrix(0,1.748721,-1.593162,-1.049767e-7,551.7876,-191.2898)"
       cx="225.52438"
       cy="218.90099"
       fx="225.52438"
       fy="218.90099"
       r="300" />
    <radialGradient
       inkscape:collect="always"
       xlink:href="#linearGradient2955"
       id="radialGradient2871"
       gradientUnits="userSpaceOnUse"
       gradientTransform="matrix(0,1.386237,-1.323286,-5.741131e-8,-158.0823,-109.5408)"
       cx="225.52438"
       cy="218.90099"
       fx="225.52438"
       fy="218.90099"
       r="300" />
    <radialGradient
       inkscape:collect="always"
       xlink:href="#linearGradient2893"
       id="radialGradient3163"
       gradientUnits="userSpaceOnUse"
       gradientTransform="matrix(1.353218,0,0,1.348928,-77.62935,-85.74693)"
       cx="221.44487"
       cy="226.33101"
       fx="221.44487"
       fy="226.33101"
       r="300" />
  </defs>
  <g
     inkscape:groupmode="layer"
     id="layer3"
     inkscape:label="Fond écu"
     style="display:inline"
     sodipodi:insensitive="true">
    <path
       id="path2855"
       style="fill:#fcef3c;fill-opacity:1;fill-rule:evenodd;stroke:none;stroke-width:1px;stroke-linecap:butt;stroke-linejoin:miter;stroke-opacity:1"
       d="M 300,658.5 C 300,658.5 598.50001,546.17969 598.50001,260.72817 C 598.50001,-24.723354 598.50001,2.1764765 598.50001,2.1764765 L 1.5,2.1764765 L 1.5,260.72817 C 1.5,546.17969 300,658.5 300,658.5 z "
       sodipodi:nodetypes="cccccc" />
  </g>
  <g
     inkscape:groupmode="layer"
     id="layer4"
     inkscape:label="Meubles"
     style="display:inline">
    <g
       style="display:inline"
       id="g5735"
       transform="translate(-741.29894,-56.119583)">
      <path
         sodipodi:nodetypes="ccccccccccccccccccccccccsscsscccccccccccccccccccccccccccccccccccccccccccccccccccccccccccc"
         d="M 1163.2726,359.97573 C 1167.7666,363.39945 1170.9767,366.97046 1174.8276,370.69185 C 1182.0507,372.62619 1186.2226,377.83491 1188.6307,383.78831 C 1195.8527,403.58183 1187.3467,426.79906 1182.5316,444.80759 C 1173.5447,452.39766 1164.3967,457.45703 1156.2106,464.60111 C 1151.7176,467.57781 1150.2726,472.34053 1148.8286,476.35856 C 1161.1867,481.86495 1175.1486,475.61387 1187.8276,477.25157 C 1191.1987,466.08946 1203.0747,464.74943 1207.5687,457.15936 C 1213.3468,435.57982 1216.0747,414.59562 1223.1368,394.95042 C 1224.9017,395.39641 1223.4567,398.52246 1226.1857,398.07544 C 1229.8767,386.16967 1236.1357,370.5425 1231.1607,358.04139 C 1227.3087,345.68859 1235.0128,331.69913 1233.0867,318.75099 C 1233.7287,317.41199 1234.0497,316.51898 1234.0497,316.51898 C 1237.4197,319.49568 1239.9877,325.74573 1246.5677,325.29974 C 1253.3088,325.00207 1256.6787,317.56031 1258.4448,312.64927 C 1232.1237,294.19475 1233.5677,246.57062 1201.4697,234.06848 C 1170.1736,221.71569 1108.0635,220.22733 1073.2364,226.62776 C 1041.7804,229.60343 1010.0023,221.12035 980.63227,214.12561 C 966.83028,205.04719 962.8183,188.23037 950.46027,180.6403 C 944.68223,174.53858 942.11421,172.75256 942.43521,172.30554 C 949.65832,162.18578 955.11425,148.19529 950.78127,145.36794 C 942.59627,144.7726 932.16424,151.17199 925.90525,150.87432 C 923.01623,146.11263 928.95422,143.13592 931.04018,140.60521 C 942.11421,128.55112 964.26616,113.03383 983.36413,109.61114 C 1027.9812,101.87172 1085.0402,165.83082 1086.8542,149.47398 C 1087.5173,143.49486 1079.0561,134.04044 1072.8895,129.13995 C 1058.1055,117.39148 1009.0393,84.646322 993.95331,87.623023 C 1003.4223,87.027683 1087.2032,126.45735 1074.3782,110.08887 C 1070.9942,105.76979 1019.3699,78.644964 1005.7729,77.252126 C 995.41498,76.191092 942.27526,76.163239 914.51023,94.915426 C 892.20112,110.0966 876.63417,131.97381 863.95513,154.44636 C 860.1031,161.29277 860.58516,166.50148 855.28807,172.90088 C 839.23906,192.84374 827.36308,218.14467 824.15306,243.29625 C 827.04208,246.8683 823.83206,251.33232 827.20203,253.26769 C 834.90608,255.35138 842.77009,261.00608 851.11615,258.62472 C 858.81909,256.39271 861.70811,250.29099 868.44916,248.05795 C 862.99212,262.64378 854.64606,282.4373 862.67112,299.55282 C 873.74515,304.90985 872.62108,310.11959 882.57216,315.92364 C 898.14022,304.01684 892.04117,287.79536 900.38723,273.21056 C 914.34917,283.47863 911.94221,299.99881 916.91719,316.81665 C 899.26317,329.61544 867.3251,332.59214 865.07808,357.89204 C 866.84415,375.75122 861.38711,393.31272 864.43608,409.68458 C 869.41217,418.91132 861.54817,430.51943 865.72009,439.15186 C 867.6461,440.64021 870.69618,441.83089 871.98019,440.49086 C 879.20219,436.7705 882.0901,430.37111 888.18914,427.39441 C 894.28819,422.18569 893.48513,414.89329 889.47315,408.93989 C 889.31321,404.92186 884.65812,404.77251 884.33711,401.94516 C 896.2142,391.8254 884.81917,369.94716 893.96719,360.12508 C 907.44817,351.34433 929.59623,356.70136 944.84328,347.77228 C 947.0903,350.15365 951.74428,350.89731 952.86723,353.27867 C 955.2753,358.33906 957.68227,363.54777 960.73123,367.5658 C 969.3983,390.1877 961.53429,413.70261 960.89229,435.87749 C 960.25028,447.33727 953.34929,453.73667 945.64523,459.09473 C 936.65828,460.58308 931.52224,468.32147 925.7442,473.82785 C 924.78119,476.35856 924.62124,479.18592 927.18926,479.0376 C 932.48525,480.97194 937.13923,480.52595 940.99125,482.46029 C 950.78127,483.20395 954.15124,475.01853 963.29925,475.91154 C 967.79328,469.95917 971.64531,465.94011 974.21333,459.24305 C 979.83032,455.82036 987.69432,455.67101 989.62033,447.93261 C 990.58334,438.25885 988.17638,429.32875 987.69432,421.29268 C 986.73131,407.15387 987.05232,393.46207 994.27431,382.44931 C 999.5703,372.62619 1000.3734,362.80411 1008.5584,354.91637 C 1011.6073,356.99903 1012.0894,363.10178 1017.8674,363.2501 C 1021.3973,364.14311 1020.2744,361.16641 1022.8424,360.57107 C 1024.4474,364.59013 1030.7064,365.63146 1035.2004,366.82214 C 1035.6814,362.95243 1037.7685,357.89204 1040.4964,354.17168 C 1044.5084,357.44605 1047.2375,363.99479 1052.3724,366.07745 C 1055.9034,365.63146 1058.4715,360.86874 1060.7185,362.20877 C 1065.6934,364.14311 1071.7925,367.26813 1077.2484,366.07745 C 1079.0145,363.99479 1077.4095,362.05942 1079.9775,361.46408 C 1082.0635,363.10178 1083.8295,366.82214 1086.7174,367.11981 C 1088.8045,363.99479 1088.4835,360.12508 1089.9275,356.70136 C 1092.8165,361.76175 1097.3105,364.73845 1103.4096,367.71515 C 1107.4215,367.11981 1110.6316,363.10178 1112.2366,364.29246 C 1115.1256,368.16114 1119.9395,367.5658 1122.9896,367.11981 C 1124.9156,365.92913 1126.0386,367.26813 1127.3226,366.37512 C 1117.8536,395.39641 1103.8905,421.59035 1084.3105,442.87222 C 1076.9274,447.48559 1070.3474,453.439 1064.5705,460.88075 C 1057.9894,465.64244 1051.2495,470.10749 1048.0394,476.80455 C 1051.0884,479.78126 1057.1874,475.76322 1059.2734,478.59058 C 1069.0634,478.44226 1076.6075,476.9539 1085.5945,476.20921 C 1088.1625,478.14458 1091.8535,476.80455 1093.1375,475.16788 C 1092.4955,470.40516 1095.0635,465.64244 1094.9036,462.51742 C 1097.7915,457.90405 1106.9395,462.66677 1108.3845,457.60638 C 1112.5576,445.40293 1118.8166,437.06817 1126.6806,427.84143 C 1130.0505,423.0787 1131.3345,421.59035 1132.2976,416.52996 C 1140.8036,409.68458 1144.6556,398.67078 1151.0756,390.63472 C 1152.5196,384.68132 1157.1736,381.70462 1157.3346,376.64423 C 1159.5816,371.28719 1164.7166,365.92913 1163.2726,359.97573 z "
         id="path4373"
         style="fill:#000000;fill-opacity:1;stroke:#313131;stroke-width:3.00000024;stroke-miterlimit:4;stroke-dasharray:none;stroke-opacity:1" />
      <path
         d="M 1161.3466,359.23207 C 1155.5686,353.72569 1151.0756,348.36762 1146.5816,341.52121 C 1142.5696,332.29447 1134.3846,325.44806 1129.0875,315.62597 C 1125.7176,306.54755 1120.4216,294.0454 1126.6806,285.26465 C 1127.4825,291.81339 1126.6806,297.91511 1128.2856,304.76153 C 1130.8536,311.45859 1132.7796,318.60267 1137.9145,323.06669 C 1130.8536,304.90985 1138.5565,283.92565 1131.4956,265.7688 C 1132.2976,264.28045 1130.3715,261.30375 1132.1376,259.8154 C 1143.8536,277.52626 1136.3095,302.52849 1141.9276,322.47135 C 1144.1746,332.59214 1150.1126,338.99153 1156.0506,346.28393 C 1156.0506,346.28393 1156.0506,345.54027 1156.2106,344.49791 C 1152.0386,332.59214 1158.9396,318.75099 1155.5686,306.69587 C 1159.0996,301.33884 1152.0386,291.81339 1156.6926,283.92565 C 1157.1736,282.4373 1159.0996,283.03264 1159.0996,283.62798 C 1158.4576,286.90235 1157.1736,289.7297 1157.4946,294.0454 C 1160.2236,301.18949 1160.7046,308.0359 1163.9146,313.24461 C 1166.6426,312.20225 1163.7547,307.29121 1167.7666,306.84522 C 1169.6927,308.33357 1170.9767,313.09526 1172.0996,317.11432 C 1176.1116,321.28067 1176.5937,327.82942 1180.2846,331.25211 C 1181.2476,326.93641 1179.8037,322.91837 1181.5686,319.79232 C 1187.3467,322.32303 1180.6056,332.29447 1184.1367,336.61017 C 1184.1367,336.61017 1183.3347,337.65253 1182.6927,338.39619 C 1178.3586,337.35486 1176.2727,331.84745 1171.9397,329.91311 C 1174.3466,337.94917 1176.4326,347.47461 1177.8777,356.85071 C 1180.4457,359.23207 1179.4827,365.33379 1183.6557,364.88677 C 1184.7787,365.77978 1182.3717,366.82214 1182.3717,367.86347 C 1184.2966,369.50117 1185.2596,372.03085 1187.1856,370.69185 C 1191.5197,372.62619 1188.6307,376.04889 1191.1987,378.5796 C 1192.4827,377.09125 1190.5567,376.79358 1191.0377,375.45355 C 1194.7286,377.83491 1194.0866,383.34129 1197.1367,385.57433 C 1202.5937,377.23957 1199.7047,363.2501 1205.3217,355.80835 C 1207.5687,361.76175 1203.3957,368.75648 1206.9267,374.11454 C 1208.6917,373.07321 1208.5317,370.24483 1210.6177,368.01282 C 1213.1857,360.86874 1215.9137,352.68333 1213.6667,343.75425 C 1215.2717,340.33053 1214.4697,334.82415 1216.2347,331.69913 C 1218.1607,339.13985 1218.9637,345.83794 1217.6797,354.32103 C 1212.5437,366.82214 1220.5688,376.49591 1225.5437,387.50867 C 1230.3588,376.49591 1228.7538,362.05942 1224.5807,348.66529 C 1226.5067,345.68859 1222.8158,341.81888 1224.2597,339.2892 C 1225.0617,340.18221 1225.5437,340.33053 1225.8647,340.77755 C 1228.1118,329.46609 1225.0617,312.3516 1225.5437,301.63548 C 1227.3087,302.67784 1225.3827,305.20752 1227.1487,306.10053 C 1227.1487,306.10053 1227.4698,306.10053 1228.4328,305.80286 C 1226.6667,299.1058 1227.9507,291.3674 1226.9877,283.33031 C 1220.7287,262.7921 1215.5927,243.1469 1192.8037,235.25916 C 1175.6306,229.30576 1107.4215,226.03242 1089.7675,228.71145 C 1058.3104,233.47314 1041.9404,232.72948 1008.7183,223.94873 C 997.00339,220.82267 978.86731,219.78134 972.28732,212.63726 C 975.81834,219.93069 975.81834,226.92543 975.65729,235.25916 C 972.76827,255.4997 965.54627,276.18623 958.00327,294.49242 C 953.50923,307.58888 951.90422,321.87601 951.10227,337.65253 C 950.29921,341.81888 954.3123,346.5816 956.39826,350.74899 C 958.32427,353.13035 960.41023,356.70136 961.05223,360.86874 C 966.67033,366.82214 965.54627,378.72792 970.68231,385.57433 C 971.96632,385.57433 971.96632,383.04362 973.73127,381.70462 C 975.49734,377.98426 972.60832,371.73318 970.52125,366.97046 C 971.64531,349.40895 964.26226,334.67583 962.33624,316.96497 C 963.94126,309.22658 960.25028,299.25515 964.42332,292.85472 C 963.62025,299.40347 966.18827,304.46386 967.47228,311.16092 C 967.79328,327.08576 974.85534,340.77755 974.37328,358.04139 C 975.65729,367.71515 977.9043,376.34656 980.95327,384.2343 C 985.76831,365.03612 980.47232,345.68859 978.86731,328.42476 C 979.99026,331.54978 980.63227,334.52648 983.36134,336.46185 C 984.64535,341.52121 987.21337,345.09325 986.25036,350.0043 C 987.69432,359.08272 985.92936,371.28719 988.97833,380.06795 C 992.6693,377.38892 992.0273,373.07321 994.11437,368.45881 C 997.9664,356.40369 997.48434,340.6282 991.06429,329.76376 C 986.89237,319.19801 979.18831,310.11959 979.02837,298.51046 C 981.59528,307.44056 985.4473,314.73296 990.26234,323.06669 C 999.24929,329.91311 999.08935,343.6049 1001.1753,352.53501 C 1005.3483,349.26063 1007.4354,344.20024 1004.2254,339.13985 C 1004.5464,326.0434 999.8913,315.62597 1001.0154,302.97551 C 1004.5464,316.36963 1006.7934,330.3591 1011.1264,344.34959 C 1013.0524,348.51594 1014.8174,354.02336 1019.9534,356.10602 C 1018.8293,352.38566 1018.6694,347.17694 1015.7804,343.45658 C 1010.9653,328.57411 1012.8913,313.39293 1012.4104,299.1058 C 1017.0644,309.67257 1012.8913,325.00207 1017.7064,336.90784 C 1021.8794,346.13561 1023.0024,355.80835 1032.9534,360.2734 C 1035.3604,358.78505 1035.0394,355.21404 1037.6074,353.27867 C 1034.7184,340.77755 1029.1014,328.27644 1029.7434,313.83995 C 1034.2374,324.85272 1033.5954,338.84218 1041.7804,348.81361 C 1047.5585,350.74899 1049.8044,361.01809 1056.5454,360.2734 C 1058.7925,359.08272 1057.8294,356.99903 1055.9034,355.36236 C 1049.4834,345.68859 1044.6695,336.46185 1049.1624,325.44806 C 1051.0884,326.78809 1050.1254,330.21078 1049.9654,333.3358 C 1052.3724,340.77755 1055.1015,349.5583 1060.2364,355.9577 C 1065.0514,359.08272 1068.7424,363.84544 1075.6445,362.05942 C 1078.2114,355.21404 1070.1875,352.08799 1066.9775,346.43328 C 1061.6815,342.86124 1063.6075,336.46185 1061.8414,330.21078 C 1062.6445,328.12709 1063.1254,327.97877 1064.7304,328.57411 C 1065.2125,335.12182 1067.6195,340.33053 1071.1505,346.28393 C 1076.9274,350.45132 1078.8534,356.25537 1084.6315,359.97573 C 1085.1135,358.04139 1085.2735,356.25537 1086.8785,354.76702 C 1086.7174,349.11128 1079.0145,345.39092 1079.0145,338.69386 C 1077.2484,329.0201 1073.8785,315.17895 1074.3605,306.10053 C 1081.2615,318.305 1076.9274,334.08049 1085.7555,345.2426 C 1091.6935,351.79032 1096.6685,361.46408 1107.5815,361.61343 C 1102.2855,350.74899 1086.7174,343.30723 1088.1625,329.0201 C 1088.0014,332.59214 1091.0515,334.67583 1092.0145,338.54451 C 1100.1995,346.73095 1108.0635,358.78505 1119.2975,362.35709 C 1119.4586,360.2734 1116.7295,361.31576 1116.7295,360.12508 C 1116.7295,360.12508 1117.3715,360.57107 1117.8536,359.82741 C 1111.5946,343.90257 1095.5456,334.22881 1093.1375,316.07196 C 1092.0145,304.01684 1087.6804,291.06973 1085.2735,283.7763 C 1097.7915,297.0221 1091.6935,320.68533 1104.8535,332.74046 C 1104.5325,327.82942 1101.0015,322.76902 1102.7676,318.00733 C 1107.5815,321.72769 1106.6185,327.38343 1108.2235,332.88981 C 1113.0385,345.54027 1117.3715,359.82741 1131.3345,364.73845 C 1127.6436,353.27867 1121.2235,339.88454 1122.1865,327.38343 C 1127.9646,346.87927 1135.0266,365.92913 1148.5076,381.70462 C 1156.0506,376.64423 1156.0506,364.73845 1161.3466,359.23207 z M 960.08923,472.78652 C 968.59635,469.36383 967.95434,457.90405 974.53433,452.39766 C 979.50932,452.54598 984.00335,451.65297 985.28736,447.33727 C 985.92936,442.7239 983.84229,439.30018 984.8053,435.4315 C 983.36134,430.96645 983.68235,424.12003 982.87928,418.61365 C 983.20029,409.68458 983.68235,402.39115 984.00335,393.46207 C 982.39834,393.61039 981.11433,395.09874 979.66926,393.1644 C 977.9043,390.48537 977.5833,388.25336 976.13935,386.46734 C 974.53433,389.44404 969.7193,390.1877 968.75629,393.90806 C 964.74432,417.86999 968.91735,446.74193 950.62021,461.92208 C 955.91731,464.89878 953.83024,471.44752 960.08923,472.78652 z M 886.42419,423.22702 C 889.31321,420.25032 887.54714,414.29795 886.42419,410.57656 C 880.64614,407.15387 879.04113,400.90382 879.68314,395.54576 C 881.4492,392.27139 883.37411,396.73644 884.33711,394.20573 C 885.30012,381.5563 882.57216,368.01282 889.47315,357.89204 C 891.55911,351.49265 895.41114,344.34959 897.17721,337.50318 C 898.94217,335.41949 900.38723,336.61017 900.86818,337.94917 C 901.02924,341.52121 901.34913,345.2426 902.31214,347.62293 C 904.23815,348.66529 906.32522,347.17694 907.12717,346.28393 C 910.33719,341.67056 908.73218,334.67583 914.18922,333.48515 C 918.04125,336.75952 912.10215,346.13561 917.07824,347.62293 C 919.1642,343.75425 923.81818,338.84218 925.26325,334.22881 C 927.51027,333.3358 929.75728,334.9735 928.15227,336.75952 C 927.34921,338.99153 926.86826,341.67056 927.34921,344.49791 C 931.20124,344.05192 930.55923,338.09852 932.96619,336.16418 C 927.18926,332.29447 924.13919,322.6207 920.12721,321.13235 C 905.52216,327.97877 892.68318,334.08049 880.00414,341.22354 C 876.63417,343.6049 875.02916,346.5816 872.46114,348.06995 C 864.91814,361.16641 870.69618,376.9419 867.3251,391.67605 C 866.84415,400.4568 867.3251,406.8562 870.85613,414.59562 C 879.52319,414.29795 879.52319,421.59035 886.42419,423.22702 z M 1174.8276,361.9111 C 1172.7416,348.81361 1172.5817,334.52648 1169.3717,322.02536 C 1169.0507,320.23934 1169.0507,319.644 1167.9266,319.19801 C 1166.6426,320.08999 1166.9636,322.76902 1164.2356,323.06669 C 1161.5077,321.13235 1159.4206,317.70966 1159.5816,314.13762 C 1155.8896,331.9968 1159.2606,351.79032 1174.8276,361.9111 z M 1075.1625,473.38186 C 1079.6565,471.59584 1085.7555,473.82785 1088.6435,470.25684 C 1090.7305,465.94011 1088.3224,460.7314 1092.0145,457.30871 C 1096.0265,455.22502 1102.1256,458.20172 1105.8165,455.22502 C 1107.7425,446.29491 1111.2736,439.59785 1110.4705,430.8171 C 1110.4705,429.77577 1113.3595,430.22176 1113.1996,431.41244 C 1114.1626,433.49613 1112.5576,436.47283 1114.8046,436.91985 C 1114.9645,433.64548 1118.9765,432.15713 1119.2975,428.28742 C 1122.0266,418.61365 1120.7426,408.19623 1123.3106,400.60615 C 1127.4825,401.79581 1125.7176,407.60089 1127.8035,410.57656 C 1135.6675,405.21953 1130.6925,392.56906 1133.1006,385.72265 C 1137.7546,386.76501 1136.1496,392.86673 1137.5935,394.95042 C 1141.7666,390.93239 1139.6806,380.51394 1137.9145,374.70988 C 1135.9885,372.1802 1135.3476,369.50117 1133.5816,368.16114 C 1130.5326,372.92386 1128.6066,379.62093 1124.9156,384.82964 C 1124.2736,388.40168 1122.9896,390.78304 1121.3846,393.31272 C 1110.9526,411.61892 1101.9645,430.22176 1088.8045,444.80759 C 1082.5455,451.50465 1073.0765,452.84366 1069.5455,461.77376 C 1070.5085,466.53545 1074.1995,469.21448 1075.1625,473.38186 z M 1176.5937,474.27487 C 1179.1617,474.27487 1184.1367,474.57254 1185.0997,472.78652 C 1188.3097,469.06616 1188.4696,463.85745 1190.7166,461.92208 C 1200.3467,458.94538 1205.8026,455.52269 1206.7657,445.55125 C 1207.5687,440.78853 1207.5687,434.98448 1209.8157,430.66878 C 1211.9017,418.91132 1213.9877,407.74921 1209.3337,396.73644 C 1210.6177,395.99175 1215.1117,395.09874 1215.2717,397.62945 C 1217.6797,394.35508 1218.8027,389.29469 1217.8397,385.42498 C 1215.2717,381.40695 1214.6297,377.68659 1212.2227,374.26286 C 1209.6547,376.79358 1209.1737,381.10928 1205.8026,383.04362 C 1203.5567,382.74698 1203.5567,380.81161 1204.1976,379.32326 C 1201.6307,389.44404 1195.0496,396.43877 1194.8897,407.74921 C 1192.3217,419.06067 1191.8407,431.11477 1187.6677,442.12856 C 1184.4577,451.80232 1170.6557,454.77903 1166.8036,462.96444 C 1169.8526,465.94011 1170.3347,470.40516 1172.5817,473.08419 C 1174.5066,474.42319 1175.6306,473.23354 1176.5937,474.27487 z M 881.7691,311.16092 C 892.36217,301.78483 887.38719,283.03264 898.14022,273.21056 C 896.69515,270.82919 893.00418,265.7688 892.04117,267.1078 C 889.15215,272.01987 887.38719,274.84723 885.30012,280.05594 C 883.85617,283.62798 884.17717,285.85999 884.01611,289.87905 C 883.85617,290.92038 881.1282,290.47439 881.1282,288.98604 C 881.28815,278.56759 886.58413,268.29848 889.31321,261.00608 C 887.86814,259.36941 887.54714,258.77407 886.42419,257.28572 C 884.65812,258.62472 884.17717,261.75077 882.0901,263.53679 C 876.31317,279.01461 868.60911,298.95748 881.7691,311.16092 z M 869.41217,298.51046 C 867.6461,280.35361 883.69511,264.28045 880.8072,249.84397 C 879.04113,253.86303 876.47311,257.43404 874.38715,262.04844 C 871.49813,263.38744 870.85613,260.70841 871.65919,260.26242 C 873.58409,255.4997 876.79411,251.77934 878.72013,246.71895 C 871.49813,248.65329 871.98019,255.94672 868.12816,262.19676 C 864.43608,272.91289 861.70811,287.79536 867.16515,296.57611 C 867.9671,297.46912 868.60911,298.06446 869.41217,298.51046 z M 914.83123,281.84196 C 916.11524,257.28572 937.78123,235.40851 928.95422,210.40525 C 928.15227,210.10758 927.83127,208.9169 927.83127,208.9169 C 922.85518,213.08428 924.46019,221.12035 919.96727,226.33009 C 919.32526,229.00912 918.8432,229.75278 916.27518,229.00912 C 915.47323,227.66909 915.15223,226.92543 914.34917,226.18074 C 913.38616,229.45511 913.70716,234.21783 909.69519,236.00385 C 906.96723,235.55683 905.20116,231.98479 903.1152,233.02715 C 897.33715,238.08754 892.20112,241.8079 884.17717,244.7846 C 884.33711,251.03465 889.31321,253.41601 892.20112,257.13637 C 895.09014,252.82067 893.64618,244.33758 897.81921,239.87253 C 903.59615,249.5463 894.60919,263.53679 903.59615,271.87052 C 904.88015,262.94145 907.60923,252.97002 906.48517,244.18926 C 910.01619,245.82593 909.85625,250.29099 911.13915,253.56536 C 911.46015,263.68511 908.09018,274.69788 914.83123,281.84196 z M 834.74503,251.03465 C 845.98011,251.48167 848.06607,238.8312 859.94316,238.38418 C 863.47307,237.4922 868.93011,236.59919 871.65919,238.08754 C 873.10314,239.57486 871.81913,242.55156 874.5471,241.8079 C 879.04113,240.91489 876.47311,236.15217 879.52319,235.25916 C 882.7321,235.70618 884.01611,240.46787 888.18914,237.93819 C 892.52212,234.96149 900.22618,231.24113 898.46122,224.69239 C 898.62116,223.94873 899.42423,222.90637 900.54718,223.50171 C 902.31214,225.28773 904.72021,225.73475 907.12717,227.37142 C 909.69519,225.13941 906.64622,220.07901 907.76918,218.59066 C 910.9792,215.91163 913.54722,219.93069 915.47323,221.12035 C 921.41122,212.78661 913.38616,201.77385 909.21424,194.77808 C 907.93023,193.28973 906.32522,192.10008 908.09018,191.20707 C 915.31218,190.16471 918.2012,199.83848 923.01623,204.45185 C 924.13919,198.35013 921.89217,191.20707 919.1642,186.44435 C 923.49718,185.10432 926.0652,189.2717 928.31222,192.10008 C 927.83127,189.42105 926.7072,185.25367 924.78119,183.16998 C 917.72025,182.72399 912.90521,187.63503 908.89324,188.67636 C 906.16416,188.08102 905.04121,186.14668 906.64622,185.84901 C 916.75724,179.15195 931.52224,179.74729 937.78123,171.26421 C 941.63326,163.9718 944.04022,155.93471 948.21325,149.98131 C 948.21325,149.38597 948.05331,148.04697 948.05331,148.04697 C 937.30028,151.02367 927.83127,154.00037 921.57117,162.3341 C 918.68326,170.81719 910.01619,172.30554 906.96723,179.0026 C 905.36221,180.49095 903.59615,179.59794 903.59615,178.85428 C 906.00422,173.3479 905.20116,166.79915 909.69519,162.78112 C 916.11524,161.73876 919.32526,157.57138 922.53417,154.00037 C 922.69523,153.7027 921.89217,152.95801 921.89217,152.95801 C 921.09022,154.74403 918.68326,155.33937 915.95418,155.19105 C 915.15223,154.44636 914.51023,153.40503 914.51023,153.40503 C 911.6212,154.59571 911.46015,159.65507 907.60923,159.05973 C 907.12717,157.72073 906.64622,155.93471 906.64622,154.00037 C 902.15219,156.82772 900.38723,162.18578 895.09014,164.71546 C 893.16412,163.67413 894.60919,160.84575 894.28819,158.61374 C 892.20112,161.88811 889.31321,163.22711 885.30012,165.46015 C 882.7321,164.71546 880.96715,162.92944 878.39913,163.82245 C 877.43612,165.60847 878.23918,168.43582 875.35016,169.03116 C 870.05418,167.09682 873.42415,160.9951 873.26309,157.12539 C 874.06615,156.38173 874.8681,155.33937 874.8681,155.33937 C 874.2261,154.59571 871.33819,155.78639 872.30008,152.66034 C 868.77017,153.25568 865.88115,156.82772 865.23914,161.73876 C 864.59714,165.01313 866.20215,167.84048 863.63413,169.62651 C 844.53504,186.44435 834.58508,211.44658 831.53611,226.18074 C 830.73305,230.94346 827.04208,236.89686 829.77005,241.51023 C 831.37506,239.72421 831.85712,236.89686 835.06603,235.55683 C 836.02904,240.61722 828.80704,244.63525 831.21511,249.84397 C 833.14002,251.48167 833.62207,249.99332 834.74503,251.03465 z M 844.53504,255.4997 C 851.75815,254.60669 858.98015,250.73698 862.35012,245.37994 C 861.22717,244.63525 862.83107,241.06321 860.58516,241.65855 C 851.11615,243.74224 847.26412,250.43931 840.52307,253.86303 L 844.53504,255.4997 z M 940.1893,176.77059 C 936.49722,185.99733 953.34929,187.9327 949.49726,200.13615 C 947.4113,206.83321 946.7693,213.82794 948.37431,220.07901 C 951.90422,210.70292 953.83024,197.3088 951.90422,186.89034 C 968.11429,199.09482 961.05223,224.2464 962.97825,242.40324 C 963.29925,244.18926 963.13931,244.7846 963.13931,245.97528 C 963.46031,245.97528 965.38632,246.71895 964.74432,245.37994 C 964.58326,231.68712 968.27534,220.07901 965.86727,206.23787 C 972.28732,216.65632 972.76827,229.75278 971.32431,242.84923 C 963.94126,274.40021 946.44829,305.20752 947.0903,339.88454 C 944.04022,339.43752 943.07721,334.22881 940.1893,332.29447 C 937.46023,326.19275 936.33727,321.13235 935.05327,315.77429 C 936.17622,293.15239 955.2753,278.56759 960.89229,259.22006 C 956.55931,269.19149 949.65832,275.1449 943.88027,285.85999 C 936.01627,297.76679 929.43628,312.3516 932.16424,327.08576 C 929.11528,324.40673 928.15227,319.644 925.42319,315.3283 C 924.62124,298.80813 933.6082,284.37164 933.44825,269.48916 C 933.9292,267.55482 934.41126,266.81013 934.73226,265.7688 C 932.80625,265.61945 933.9292,269.19149 931.84324,270.23385 C 930.23823,285.26465 922.21317,298.65981 921.89217,312.3516 C 916.11524,302.82616 916.75724,290.17672 920.12721,280.50296 C 925.90525,270.82919 931.04018,260.85776 934.41126,250.73698 C 935.37427,248.05795 937.30028,245.23059 935.53421,243.59392 C 934.73226,243.29625 933.9292,242.99858 933.9292,242.99858 C 933.2872,251.33232 927.02821,257.43404 924.13919,266.36414 C 923.33723,267.85249 923.17618,269.48916 922.05323,269.48916 C 924.78119,254.45837 933.2872,241.65855 935.05327,226.62776 C 939.70724,211.29826 931.68219,193.88507 930.23823,181.53331 C 933.44825,180.93797 935.85522,181.68163 940.1893,176.77059 z M 936.81822,344.34959 C 938.42323,344.94493 938.42323,343.15891 940.50919,343.15891 C 939.70724,341.07522 937.30028,339.88454 936.01627,337.50318 C 935.85522,339.88454 934.89221,342.41422 936.81822,344.34959 z M 1246.4078,320.983 C 1250.2598,321.13235 1252.1858,316.96497 1253.4687,314.13762 C 1246.7288,306.10053 1239.1858,299.25515 1234.2097,289.28371 C 1232.4447,302.67784 1237.7407,312.79759 1246.4078,320.983 z "
         id="path4375"
         style="fill:#000000;fill-opacity:1;stroke:#313131;stroke-width:3.00000024;stroke-miterlimit:4;stroke-dasharray:none;stroke-opacity:1" />
      <path
         d="M 936.97928,477.99523 C 941.95426,477.84691 949.01631,478.14458 953.18823,474.87021 C 951.90422,469.95917 949.17626,465.79179 944.36122,462.96444 C 938.26329,466.83312 932.80625,471.59584 929.27522,475.76322 C 932.00319,476.65623 933.44825,477.10222 936.97928,477.99523 z "
         id="path4377"
         style="fill:#000000;fill-opacity:1;stroke:#313131;stroke-width:3.00000024;stroke-miterlimit:4;stroke-dasharray:none;stroke-opacity:1" />
      <path
         d="M 1054.7805,474.57254 C 1059.9154,472.6382 1065.2125,476.06089 1070.8295,474.42319 C 1069.8665,471.29817 1068.1004,468.17315 1065.3724,465.94011 C 1061.3605,468.47082 1056.5454,471.29817 1054.7805,474.57254 z "
         id="path4379"
         style="fill:#000000;fill-opacity:1;stroke:#313131;stroke-width:3.00000024;stroke-miterlimit:4;stroke-dasharray:none;stroke-opacity:1" />
      <path
         d="M 1154.7666,475.91154 C 1158.9396,476.06089 1164.8776,476.35856 1167.7666,474.57254 C 1165.5196,471.29817 1164.2356,466.6848 1161.1867,465.34477 C 1158.7786,468.32147 1153.8036,472.34053 1154.7666,475.91154 z "
         id="path4381"
         style="fill:#000000;fill-opacity:1;stroke:#313131;stroke-width:3.00000024;stroke-miterlimit:4;stroke-dasharray:none;stroke-opacity:1" />
      <path
         d="M 868.12816,436.62218 C 873.42415,435.4315 878.23918,431.26412 881.1282,427.69208 C 877.43612,425.16239 875.35016,419.65498 870.53512,419.35731 C 869.41217,425.46006 868.77017,431.56179 868.12816,436.62218 z "
         id="path4383"
         style="fill:#000000;fill-opacity:1;stroke:#313131;stroke-width:3.00000024;stroke-miterlimit:4;stroke-dasharray:none;stroke-opacity:1" />
      <path
         d="M 1213.5067,328.27644 C 1218.6427,324.10906 1211.9017,313.6906 1218.0007,310.11959 C 1219.7657,305.0592 1217.3587,299.55282 1219.1237,296.57611 C 1222.3337,284.37164 1217.8397,272.31754 1209.3337,264.57812 C 1207.4077,263.83446 1206.6057,263.68511 1205.0007,262.64378 C 1209.4947,269.34084 1218.3217,279.31228 1217.3587,290.92038 C 1213.6667,287.05067 1212.8647,279.31228 1206.6057,277.67458 C 1204.6797,277.67458 1203.2357,278.71694 1204.1976,279.75827 C 1211.7417,287.34834 1215.9137,298.06446 1215.4327,308.48189 C 1212.3838,305.20752 1213.1857,297.91511 1208.5317,294.49242 C 1207.0867,293.59941 1206.4447,293.30174 1205.1606,292.7064 C 1207.7287,295.98077 1202.9147,297.46912 1205.1606,299.70114 C 1208.3707,305.35687 1210.6177,311.01157 1211.7417,317.11432 C 1209.8157,317.26264 1207.8897,314.58361 1204.8396,315.77429 C 1206.6057,320.08999 1210.7787,323.81138 1213.5067,328.27644 z "
         id="path4385"
         style="fill:#000000;fill-opacity:1;stroke:#313131;stroke-width:3.00000024;stroke-miterlimit:4;stroke-dasharray:none;stroke-opacity:1" />
      <path
         d="M 1056.0645,302.52849 C 1057.6684,302.52849 1060.8784,302.97551 1061.3605,301.18949 C 1061.6815,299.85049 1061.8414,299.40347 1061.8414,298.80813 C 1058.1504,301.04117 1053.1755,298.51046 1050.6074,295.6831 C 1047.2375,292.85472 1045.1504,287.64601 1041.2984,286.60468 C 1040.0144,289.87905 1044.3485,291.96274 1043.7065,295.08776 C 1037.1265,292.40873 1035.6814,284.52099 1031.0274,280.50296 C 1027.9784,282.88432 1031.5084,286.30701 1032.1504,289.13436 C 1026.8544,285.26465 1023.6444,279.75827 1021.2374,272.91289 C 1018.5083,272.01987 1019.1503,275.29322 1018.9904,277.07924 C 1022.0394,286.60468 1027.6574,291.96274 1036.8055,295.53375 C 1041.9404,299.85049 1047.2375,295.53375 1050.7674,301.18949 C 1053.0144,302.38017 1054.7805,301.63548 1056.0645,302.52849 z "
         id="path4387"
         style="fill:#000000;fill-opacity:1;stroke:#313131;stroke-width:3.00000024;stroke-miterlimit:4;stroke-dasharray:none;stroke-opacity:1" />
      <path
         d="M 1045.6325,263.53679 C 1050.1254,260.85776 1044.9905,253.11834 1044.5084,247.90963 C 1040.9774,243.44457 1034.7184,237.34285 1029.5824,238.23586 C 1029.5824,238.97952 1030.2244,239.27719 1031.3484,239.87253 C 1030.8664,240.76554 1031.3484,242.25389 1028.6193,241.8079 C 1022.6814,234.96149 1013.5333,228.41378 1003.9044,228.85977 C 1004.0643,231.38945 1007.5954,230.34812 1009.5214,232.72948 C 1014.4964,234.21783 1018.5083,236.74751 1021.7183,240.02188 C 1023.0024,242.70091 1025.7314,242.84923 1026.8544,245.08227 C 1028.7804,245.23059 1028.7804,240.31955 1030.5454,241.95622 C 1036.4845,241.8079 1040.0144,248.80264 1042.2614,252.97002 C 1043.5454,256.8387 1042.2614,260.70841 1045.6325,263.53679 z "
         id="path4389"
         style="fill:#000000;fill-opacity:1;stroke:#313131;stroke-width:3.00000024;stroke-miterlimit:4;stroke-dasharray:none;stroke-opacity:1" />
      <path
         d="M 1103.0886,260.85776 C 1107.1005,257.88106 1101.3225,250.58866 1099.8785,246.8683 C 1094.2615,241.8079 1088.0014,237.34285 1080.1374,237.78987 C 1079.9775,242.10557 1083.8295,248.05795 1087.3594,250.73698 C 1089.1255,251.33232 1089.9275,251.33232 1090.4095,250.58866 C 1089.7675,248.35562 1087.8415,246.42127 1086.8785,243.44457 C 1091.2115,242.84923 1096.3475,248.95096 1098.9155,252.82067 C 1100.6805,256.09504 1101.0015,258.4764 1103.0886,260.85776 z "
         id="path4391"
         style="fill:#000000;fill-opacity:1;stroke:#313131;stroke-width:3.00000024;stroke-miterlimit:4;stroke-dasharray:none;stroke-opacity:1" />
      <path
         d="M 1186.5436,258.62472 C 1187.6677,258.62472 1189.2727,257.88106 1188.9517,256.8387 C 1186.2226,249.99332 1181.7297,242.84923 1176.9147,237.4922 C 1174.6676,237.04518 1174.9886,239.87253 1175.3096,241.51023 C 1180.9266,246.71895 1181.5686,253.71368 1186.5436,258.62472 z "
         id="path4393"
         style="fill:#000000;fill-opacity:1;stroke:#313131;stroke-width:3.00000024;stroke-miterlimit:4;stroke-dasharray:none;stroke-opacity:1" />
      <path
         d="M 1152.0386,252.37468 C 1152.8406,252.523 1153.6437,252.523 1154.2857,251.77934 C 1151.2356,245.82593 1148.3466,239.57486 1140.8036,236.74751 C 1135.9885,235.8545 1131.3345,234.96149 1128.2856,237.04518 C 1130.3715,239.87253 1132.6186,242.25389 1134.5446,245.52826 C 1135.5076,247.46261 1135.6675,250.29099 1138.8775,249.84397 C 1140.4826,246.57062 1137.1126,243.59392 1136.6305,240.61722 C 1141.2856,239.57486 1145.4575,243.89159 1147.5446,246.8683 C 1149.9516,248.95096 1150.1126,250.88633 1152.0386,252.37468 z "
         id="path4395"
         style="fill:#000000;fill-opacity:1;stroke:#313131;stroke-width:3.00000024;stroke-miterlimit:4;stroke-dasharray:none;stroke-opacity:1" />
      <path
         d="M 1167.7666,252.37468 C 1168.5686,251.62999 1170.8156,251.184 1170.8156,249.84397 C 1169.2106,245.67761 1163.1127,243.1469 1160.7046,240.46787 C 1156.6926,238.97952 1155.7296,234.36615 1152.6806,234.36615 C 1150.7546,237.93819 1156.2106,239.72421 1157.3346,242.55156 C 1161.0256,246.27295 1163.5936,249.39798 1167.7666,252.37468 z "
         id="path4397"
         style="fill:#000000;fill-opacity:1;stroke:#313131;stroke-width:3.00000024;stroke-miterlimit:4;stroke-dasharray:none;stroke-opacity:1" />
      <path
         d="M 1203.5567,253.56536 C 1204.5186,253.11834 1205.8026,253.86303 1206.7657,252.82067 C 1203.3957,248.05795 1199.3837,242.40324 1191.6797,241.21256 C 1193.1247,246.71895 1199.3837,250.43931 1203.5567,253.56536 z "
         id="path4399"
         style="fill:#000000;fill-opacity:1;stroke:#313131;stroke-width:3.00000024;stroke-miterlimit:4;stroke-dasharray:none;stroke-opacity:1" />
      <path
         d="M 1066.1755,244.18926 C 1067.2985,244.93292 1068.9035,243.1469 1068.2615,242.40324 C 1066.6565,239.87253 1065.2125,236.00385 1062.6445,236.00385 C 1060.3975,239.57486 1063.9285,242.25389 1066.1755,244.18926 z "
         id="path4401"
         style="fill:#000000;fill-opacity:1;stroke:#313131;stroke-width:3.00000024;stroke-miterlimit:4;stroke-dasharray:none;stroke-opacity:1" />
      <path
         d="M 878.56018,217.10231 C 880.4862,217.69765 880.96715,215.01862 879.52319,214.12561 C 876.95517,211.59593 873.10314,208.9169 874.06615,206.08955 C 875.67116,202.81518 878.88119,203.26117 879.68314,199.54081 C 877.91818,198.49948 875.83111,199.98783 874.2261,200.88084 C 876.79411,197.75479 880.64614,195.52278 884.01611,191.95073 C 885.62112,191.20707 887.38719,188.82571 885.46118,188.67636 C 876.15211,185.40199 865.39909,191.50474 858.49809,185.69966 C 857.85609,184.65833 857.53508,183.617 857.53508,183.617 C 856.41213,183.617 854.80712,185.25367 855.44912,186.74202 C 859.4611,191.50474 857.69614,196.56411 858.98015,201.32683 C 861.38711,202.21984 863.95513,202.21984 865.23914,203.85651 C 864.27613,205.64253 863.63413,208.47091 865.23914,209.80991 C 870.21412,212.63726 873.90509,214.72095 878.56018,217.10231 z "
         id="path4403"
         style="fill:#000000;fill-opacity:1;stroke:#313131;stroke-width:3.00000024;stroke-miterlimit:4;stroke-dasharray:none;stroke-opacity:1" />
      <path
         d="M 904.0782,213.67962 C 906.16416,213.38195 906.64622,209.21457 905.52216,207.5779 C 904.0782,206.08955 900.38723,204.89887 900.22618,206.38722 C 900.06623,210.25693 902.47319,212.63726 904.0782,213.67962 z "
         id="path4405"
         style="fill:#000000;fill-opacity:1;stroke:#313131;stroke-width:3.00000024;stroke-miterlimit:4;stroke-dasharray:none;stroke-opacity:1" />
      <path
         d="M 869.25111,192.10008 C 875.51011,192.2484 876.15211,200.58317 865.56014,199.39249 C 868.77017,199.39249 873.74515,198.6478 869.25111,192.10008 z "
         id="path4407"
         style="fill:#000000;fill-opacity:1;stroke:#313131;stroke-width:3.00000024;stroke-miterlimit:4;stroke-dasharray:none;stroke-opacity:1" />
      <path
         d="M 875.51011,183.02166 C 877.11512,183.16998 880.16519,183.31933 880.96715,182.72399 C 880.32514,179.74729 876.15211,177.6636 874.8681,178.40726 C 873.74515,178.85428 872.62108,178.85428 872.62108,178.85428 C 870.53512,180.04496 873.58409,181.9793 875.51011,183.02166 z "
         id="path4409"
         style="fill:#000000;fill-opacity:1;stroke:#313131;stroke-width:3.00000024;stroke-miterlimit:4;stroke-dasharray:none;stroke-opacity:1" />
      <path
         d="M 919.64626,175.57991 C 925.10219,176.91891 929.11528,172.75256 931.36118,169.62651 C 932.32419,163.22711 937.13923,161.14342 938.26329,155.78639 C 928.63322,157.57138 927.51027,168.73349 917.55919,171.85955 C 916.59619,173.94324 917.72025,175.28224 919.64626,175.57991 z "
         id="path4411"
         style="fill:#000000;fill-opacity:1;stroke:#313131;stroke-width:3.00000024;stroke-miterlimit:4;stroke-dasharray:none;stroke-opacity:1" />
    </g>
    <g
       style="fill:#2b5df2;fill-opacity:1;stroke:#000000;stroke-width:4.07129288;stroke-miterlimit:4;stroke-dasharray:none;stroke-opacity:1;display:inline"
       transform="matrix(0.7351539,0,0,0.7385835,77.711579,320.33883)"
       id="g3336">
      <path
         d="M 312.60173,331.55963 C 312.90847,318.21927 316.20859,305.8204 322.35348,294.07058 C 338.44098,260.22535 387.57826,261.03368 376.74656,302.42743 C 372.75521,317.68056 359.19614,326.64529 343.088,328.18292 C 344.25064,324.1639 350.64579,309.95557 345.48332,307.17598 C 337.22835,307.48785 326.9778,321.75423 324.51271,328.5574 C 324.15685,329.53411 324.25639,330.6628 323.85903,331.62357"
         style="fill:#2b5df2;fill-opacity:1;fill-rule:evenodd;stroke:#000000;stroke-width:4.07129288;stroke-linecap:butt;stroke-linejoin:miter;marker-start:none;stroke-miterlimit:4;stroke-dasharray:none;stroke-opacity:1;display:inline"
         id="path1876" />
      <path
         d="M 292.13808,332.44159 C 291.83134,319.10123 288.53122,306.70237 282.38633,294.95255 C 266.29883,261.10732 217.16156,261.91564 227.99325,303.3094 C 231.98461,318.56252 245.54368,327.52726 261.65181,329.06489 C 260.48917,325.04586 254.09402,310.83753 259.25649,308.05794 C 267.51146,308.36981 277.76202,322.6362 280.2271,329.43936 C 280.58296,330.41608 280.48342,331.54476 280.88078,332.50553"
         style="fill:#2b5df2;fill-opacity:1;fill-rule:evenodd;stroke:#000000;stroke-width:4.07129288;stroke-linecap:butt;stroke-linejoin:miter;marker-start:none;stroke-miterlimit:4;stroke-dasharray:none;stroke-opacity:1"
         id="path1902" />
      <path
         d="M 301.41901,203.19538 C 284.47025,221.46515 273.09053,242.59065 277.99624,267.36744 C 280.70272,281.03679 287.264,293.6967 291.8911,306.86518 C 294.78425,315.12697 295.52403,323.7574 295.18146,332.44115 L 309.56079,332.44115 C 308.87252,323.69353 310.38045,315.21594 312.85115,306.86518 C 317.25965,293.61476 323.96721,281.04714 326.74601,267.36744 C 331.94126,241.79191 319.74663,222.50349 303.39726,203.27612 L 302.39808,202.0018 L 301.41901,203.19538 z "
         style="fill:#2b5df2;fill-opacity:1;fill-rule:nonzero;stroke:#000000;stroke-width:4.07129288;stroke-linecap:butt;stroke-linejoin:miter;marker-start:none;stroke-miterlimit:4;stroke-dasharray:none;stroke-opacity:1"
         id="path3734" />
      <path
         d="M 288.00862,342.56791 C 285.00239,350.99339 272.74498,366.42365 266.23439,370.82192 C 264.54582,371.96265 274.30595,370.16486 278.67584,369.20702 C 284.40745,367.95071 291.85718,361.8436 291.68251,363.99897 C 291.66623,373.86886 294.44098,390.33782 301.6747,397.90513 L 302.35987,398.63455 L 303.06755,397.90513 C 310.2975,389.47084 313.02343,374.64154 313.05974,363.99897 C 312.88507,361.8436 320.33481,367.95071 326.06641,369.20702 C 330.4363,370.16486 340.19644,371.96265 338.50786,370.82192 C 331.99727,366.42365 319.74659,350.99339 316.74037,342.56791 L 288.00862,342.56791 z "
         style="fill:#2b5df2;fill-opacity:1;fill-rule:evenodd;stroke:#000000;stroke-width:4.07129288;stroke-linecap:butt;stroke-linejoin:miter;marker-start:none;stroke-miterlimit:4;stroke-dasharray:none;stroke-opacity:1"
         id="path6395" />
      <rect
         width="68.447556"
         height="11.089695"
         x="268.20078"
         y="332.01251"
         style="fill:#2b5df2;fill-opacity:1;stroke:#000000;stroke-width:4.07129288;stroke-miterlimit:4;stroke-dasharray:none;stroke-opacity:1"
         id="rect4623" />
    </g>
  </g>
  <g
     inkscape:groupmode="layer"
     id="layer2"
     inkscape:label="Reflet final"
     style="display:inline"
     sodipodi:insensitive="true">
    <path
       sodipodi:nodetypes="cccccc"
       d="M 300.00001,658.5 C 300.00001,658.5 598.50001,546.17969 598.50001,260.72817 C 598.50001,-24.723334 598.50001,2.1764865 598.50001,2.1764865 L 1.5,2.1764865 L 1.5,260.72817 C 1.5,546.17969 300.00001,658.5 300.00001,658.5 z "
       style="opacity:1;fill:url(#radialGradient3163);fill-opacity:1;fill-rule:evenodd;stroke:none;stroke-width:1px;stroke-linecap:butt;stroke-linejoin:miter;stroke-opacity:1"
       id="path2875"
       inkscape:export-xdpi="144"
       inkscape:export-ydpi="144" />
  </g>
  <g
     inkscape:groupmode="layer"
     id="layer1"
     inkscape:label="Contour final"
     style="display:inline">
    <path
       sodipodi:nodetypes="cccccc"
       d="M 299.99999,658.50028 C 299.99999,658.50028 1.5,546.17992 1.5,260.72828 C 1.5,-24.723336 1.5,2.1764957 1.5,2.1764957 L 598.49999,2.1764957 L 598.49999,260.72828 C 598.49999,546.17992 299.99999,658.50028 299.99999,658.50028 z "
       style="opacity:1;fill:none;fill-opacity:1;fill-rule:evenodd;stroke:#000000;stroke-width:3.00000048;stroke-linecap:butt;stroke-linejoin:miter;stroke-miterlimit:4;stroke-dasharray:none;stroke-opacity:1"
       id="path1411"
       inkscape:export-xdpi="144"
       inkscape:export-ydpi="144" />
  </g>
</svg>
